<mxfile host="app.diagrams.net" agent="Mozilla/5.0 (Windows NT 10.0; Win64; x64) AppleWebKit/537.36 (KHTML, like Gecko) Chrome/140.0.0.0 Safari/537.36" version="28.2.5">
  <diagram name="Halaman-1" id="gDcNmGbB8-p_p7fMvYSl">
    <mxGraphModel dx="1163" dy="623" grid="1" gridSize="10" guides="1" tooltips="1" connect="1" arrows="1" fold="1" page="1" pageScale="1" pageWidth="827" pageHeight="1169" math="0" shadow="0">
      <root>
        <mxCell id="0" />
        <mxCell id="1" parent="0" />
        <mxCell id="vhH0Gv2x4ZLZjfIvMNJY-3" style="edgeStyle=orthogonalEdgeStyle;rounded=0;orthogonalLoop=1;jettySize=auto;html=1;" edge="1" parent="1" source="vhH0Gv2x4ZLZjfIvMNJY-1">
          <mxGeometry relative="1" as="geometry">
            <mxPoint x="392" y="70" as="targetPoint" />
          </mxGeometry>
        </mxCell>
        <mxCell id="vhH0Gv2x4ZLZjfIvMNJY-1" value="start" style="ellipse;whiteSpace=wrap;html=1;" vertex="1" parent="1">
          <mxGeometry x="354" width="76" height="40" as="geometry" />
        </mxCell>
        <mxCell id="vhH0Gv2x4ZLZjfIvMNJY-4" value="output nama kamu" style="shape=parallelogram;perimeter=parallelogramPerimeter;whiteSpace=wrap;html=1;fixedSize=1;" vertex="1" parent="1">
          <mxGeometry x="332" y="70" width="138" height="30" as="geometry" />
        </mxCell>
        <mxCell id="vhH0Gv2x4ZLZjfIvMNJY-5" value="" style="endArrow=classic;html=1;rounded=0;" edge="1" parent="1">
          <mxGeometry width="50" height="50" relative="1" as="geometry">
            <mxPoint x="391.5" y="100" as="sourcePoint" />
            <mxPoint x="391.5" y="130" as="targetPoint" />
          </mxGeometry>
        </mxCell>
        <mxCell id="vhH0Gv2x4ZLZjfIvMNJY-6" value="input nama" style="shape=parallelogram;perimeter=parallelogramPerimeter;whiteSpace=wrap;html=1;fixedSize=1;" vertex="1" parent="1">
          <mxGeometry x="320" y="130" width="132" height="30" as="geometry" />
        </mxCell>
        <mxCell id="vhH0Gv2x4ZLZjfIvMNJY-8" value="" style="endArrow=classic;html=1;rounded=0;" edge="1" parent="1">
          <mxGeometry width="50" height="50" relative="1" as="geometry">
            <mxPoint x="391.5" y="160" as="sourcePoint" />
            <mxPoint x="392" y="200" as="targetPoint" />
          </mxGeometry>
        </mxCell>
        <mxCell id="vhH0Gv2x4ZLZjfIvMNJY-9" value="output nim kamu" style="shape=parallelogram;perimeter=parallelogramPerimeter;whiteSpace=wrap;html=1;fixedSize=1;" vertex="1" parent="1">
          <mxGeometry x="316" y="200" width="140" height="30" as="geometry" />
        </mxCell>
        <mxCell id="vhH0Gv2x4ZLZjfIvMNJY-10" value="" style="endArrow=classic;html=1;rounded=0;" edge="1" parent="1">
          <mxGeometry width="50" height="50" relative="1" as="geometry">
            <mxPoint x="391.5" y="230" as="sourcePoint" />
            <mxPoint x="391.5" y="280" as="targetPoint" />
          </mxGeometry>
        </mxCell>
        <mxCell id="vhH0Gv2x4ZLZjfIvMNJY-11" value="input nim" style="shape=parallelogram;perimeter=parallelogramPerimeter;whiteSpace=wrap;html=1;fixedSize=1;" vertex="1" parent="1">
          <mxGeometry x="306" y="280" width="154" height="30" as="geometry" />
        </mxCell>
        <mxCell id="vhH0Gv2x4ZLZjfIvMNJY-12" value="" style="endArrow=classic;html=1;rounded=0;" edge="1" parent="1">
          <mxGeometry width="50" height="50" relative="1" as="geometry">
            <mxPoint x="391.5" y="310" as="sourcePoint" />
            <mxPoint x="391.5" y="350" as="targetPoint" />
          </mxGeometry>
        </mxCell>
        <mxCell id="vhH0Gv2x4ZLZjfIvMNJY-13" value="if nama in users and users[nama]==nim:" style="rhombus;whiteSpace=wrap;html=1;" vertex="1" parent="1">
          <mxGeometry x="315.5" y="350" width="153" height="90" as="geometry" />
        </mxCell>
        <mxCell id="vhH0Gv2x4ZLZjfIvMNJY-14" value="" style="endArrow=classic;html=1;rounded=0;" edge="1" parent="1">
          <mxGeometry width="50" height="50" relative="1" as="geometry">
            <mxPoint x="470" y="394.5" as="sourcePoint" />
            <mxPoint x="560" y="450" as="targetPoint" />
            <Array as="points">
              <mxPoint x="560" y="395" />
            </Array>
          </mxGeometry>
        </mxCell>
        <mxCell id="vhH0Gv2x4ZLZjfIvMNJY-16" value="" style="endArrow=classic;html=1;rounded=0;" edge="1" parent="1">
          <mxGeometry width="50" height="50" relative="1" as="geometry">
            <mxPoint x="559.5" y="490" as="sourcePoint" />
            <mxPoint x="559.5" y="540" as="targetPoint" />
          </mxGeometry>
        </mxCell>
        <mxCell id="vhH0Gv2x4ZLZjfIvMNJY-17" value="output&quot;program pembayaran ukt dimulai&quot;" style="shape=parallelogram;perimeter=parallelogramPerimeter;whiteSpace=wrap;html=1;fixedSize=1;" vertex="1" parent="1">
          <mxGeometry x="485" y="540" width="175" height="60" as="geometry" />
        </mxCell>
        <mxCell id="vhH0Gv2x4ZLZjfIvMNJY-18" value="" style="endArrow=classic;html=1;rounded=0;" edge="1" parent="1">
          <mxGeometry width="50" height="50" relative="1" as="geometry">
            <mxPoint x="557" y="600" as="sourcePoint" />
            <mxPoint x="557.5" y="640" as="targetPoint" />
          </mxGeometry>
        </mxCell>
        <mxCell id="vhH0Gv2x4ZLZjfIvMNJY-19" value="output&quot;(1/2/3/4)&quot;" style="shape=parallelogram;perimeter=parallelogramPerimeter;whiteSpace=wrap;html=1;fixedSize=1;" vertex="1" parent="1">
          <mxGeometry x="490" y="640" width="140" height="50" as="geometry" />
        </mxCell>
        <mxCell id="vhH0Gv2x4ZLZjfIvMNJY-20" value="" style="endArrow=classic;html=1;rounded=0;" edge="1" parent="1">
          <mxGeometry width="50" height="50" relative="1" as="geometry">
            <mxPoint x="315.5" y="394.5" as="sourcePoint" />
            <mxPoint x="240" y="450" as="targetPoint" />
            <Array as="points">
              <mxPoint x="260" y="395" />
              <mxPoint x="240" y="395" />
            </Array>
          </mxGeometry>
        </mxCell>
        <mxCell id="vhH0Gv2x4ZLZjfIvMNJY-21" value="end" style="ellipse;whiteSpace=wrap;html=1;" vertex="1" parent="1">
          <mxGeometry x="200" y="450" width="80" height="40" as="geometry" />
        </mxCell>
        <mxCell id="vhH0Gv2x4ZLZjfIvMNJY-22" value="output&quot;selamat datang di program kami&quot;" style="shape=parallelogram;perimeter=parallelogramPerimeter;whiteSpace=wrap;html=1;fixedSize=1;" vertex="1" parent="1">
          <mxGeometry x="497.5" y="450" width="132.5" height="50" as="geometry" />
        </mxCell>
        <mxCell id="vhH0Gv2x4ZLZjfIvMNJY-24" value="" style="endArrow=classic;html=1;rounded=0;" edge="1" parent="1">
          <mxGeometry width="50" height="50" relative="1" as="geometry">
            <mxPoint x="559.5" y="690" as="sourcePoint" />
            <mxPoint x="559.5" y="740" as="targetPoint" />
          </mxGeometry>
        </mxCell>
        <mxCell id="vhH0Gv2x4ZLZjfIvMNJY-28" style="edgeStyle=orthogonalEdgeStyle;rounded=0;orthogonalLoop=1;jettySize=auto;html=1;exitX=0.5;exitY=1;exitDx=0;exitDy=0;entryX=0.5;entryY=0;entryDx=0;entryDy=0;" edge="1" parent="1" source="vhH0Gv2x4ZLZjfIvMNJY-26" target="vhH0Gv2x4ZLZjfIvMNJY-27">
          <mxGeometry relative="1" as="geometry" />
        </mxCell>
        <mxCell id="vhH0Gv2x4ZLZjfIvMNJY-26" value="input opsi" style="shape=parallelogram;perimeter=parallelogramPerimeter;whiteSpace=wrap;html=1;fixedSize=1;" vertex="1" parent="1">
          <mxGeometry x="480" y="740" width="140" height="50" as="geometry" />
        </mxCell>
        <mxCell id="vhH0Gv2x4ZLZjfIvMNJY-27" value="A" style="ellipse;whiteSpace=wrap;html=1;aspect=fixed;" vertex="1" parent="1">
          <mxGeometry x="510" y="830" width="80" height="80" as="geometry" />
        </mxCell>
        <mxCell id="vhH0Gv2x4ZLZjfIvMNJY-39" value="" style="edgeStyle=orthogonalEdgeStyle;rounded=0;orthogonalLoop=1;jettySize=auto;html=1;" edge="1" parent="1" source="vhH0Gv2x4ZLZjfIvMNJY-29" target="vhH0Gv2x4ZLZjfIvMNJY-38">
          <mxGeometry relative="1" as="geometry" />
        </mxCell>
        <mxCell id="vhH0Gv2x4ZLZjfIvMNJY-90" value="" style="edgeStyle=orthogonalEdgeStyle;rounded=0;orthogonalLoop=1;jettySize=auto;html=1;" edge="1" parent="1" source="vhH0Gv2x4ZLZjfIvMNJY-29" target="vhH0Gv2x4ZLZjfIvMNJY-89">
          <mxGeometry relative="1" as="geometry" />
        </mxCell>
        <mxCell id="vhH0Gv2x4ZLZjfIvMNJY-29" value="if opsi == 1:" style="rhombus;whiteSpace=wrap;html=1;" vertex="1" parent="1">
          <mxGeometry x="280" y="1180" width="80" height="80" as="geometry" />
        </mxCell>
        <mxCell id="vhH0Gv2x4ZLZjfIvMNJY-43" value="" style="edgeStyle=orthogonalEdgeStyle;rounded=0;orthogonalLoop=1;jettySize=auto;html=1;" edge="1" parent="1" source="vhH0Gv2x4ZLZjfIvMNJY-30" target="vhH0Gv2x4ZLZjfIvMNJY-34">
          <mxGeometry relative="1" as="geometry" />
        </mxCell>
        <mxCell id="vhH0Gv2x4ZLZjfIvMNJY-30" value="print(f&quot;total biaya ukt = Rp{total_bayar:}&quot;)" style="shape=parallelogram;perimeter=parallelogramPerimeter;whiteSpace=wrap;html=1;fixedSize=1;" vertex="1" parent="1">
          <mxGeometry x="402.5" y="1400" width="155" height="40" as="geometry" />
        </mxCell>
        <mxCell id="vhH0Gv2x4ZLZjfIvMNJY-45" value="" style="edgeStyle=orthogonalEdgeStyle;rounded=0;orthogonalLoop=1;jettySize=auto;html=1;" edge="1" parent="1" source="vhH0Gv2x4ZLZjfIvMNJY-34" target="vhH0Gv2x4ZLZjfIvMNJY-44">
          <mxGeometry relative="1" as="geometry" />
        </mxCell>
        <mxCell id="vhH0Gv2x4ZLZjfIvMNJY-34" value="" style="shape=parallelogram;perimeter=parallelogramPerimeter;whiteSpace=wrap;html=1;fixedSize=1;" vertex="1" parent="1">
          <mxGeometry x="402.5" y="1460" width="155" height="40" as="geometry" />
        </mxCell>
        <mxCell id="vhH0Gv2x4ZLZjfIvMNJY-41" style="edgeStyle=orthogonalEdgeStyle;rounded=0;orthogonalLoop=1;jettySize=auto;html=1;exitX=0.5;exitY=1;exitDx=0;exitDy=0;entryX=0.5;entryY=0;entryDx=0;entryDy=0;" edge="1" parent="1" source="vhH0Gv2x4ZLZjfIvMNJY-35" target="vhH0Gv2x4ZLZjfIvMNJY-37">
          <mxGeometry relative="1" as="geometry" />
        </mxCell>
        <mxCell id="vhH0Gv2x4ZLZjfIvMNJY-35" value="biaya_administrasi = 0.01" style="rounded=0;whiteSpace=wrap;html=1;" vertex="1" parent="1">
          <mxGeometry x="410" y="1290" width="140" height="30" as="geometry" />
        </mxCell>
        <mxCell id="vhH0Gv2x4ZLZjfIvMNJY-36" value="biaya_admistrasi=0.08" style="rounded=0;whiteSpace=wrap;html=1;" vertex="1" parent="1">
          <mxGeometry x="300" y="1710" width="140" height="30" as="geometry" />
        </mxCell>
        <mxCell id="vhH0Gv2x4ZLZjfIvMNJY-42" value="" style="edgeStyle=orthogonalEdgeStyle;rounded=0;orthogonalLoop=1;jettySize=auto;html=1;" edge="1" parent="1" source="vhH0Gv2x4ZLZjfIvMNJY-37" target="vhH0Gv2x4ZLZjfIvMNJY-30">
          <mxGeometry relative="1" as="geometry" />
        </mxCell>
        <mxCell id="vhH0Gv2x4ZLZjfIvMNJY-37" value="total_bayar = ukt + (ukt*biaya)" style="rounded=0;whiteSpace=wrap;html=1;" vertex="1" parent="1">
          <mxGeometry x="410" y="1340" width="140" height="30" as="geometry" />
        </mxCell>
        <mxCell id="vhH0Gv2x4ZLZjfIvMNJY-40" value="" style="edgeStyle=orthogonalEdgeStyle;rounded=0;orthogonalLoop=1;jettySize=auto;html=1;" edge="1" parent="1" source="vhH0Gv2x4ZLZjfIvMNJY-38" target="vhH0Gv2x4ZLZjfIvMNJY-35">
          <mxGeometry relative="1" as="geometry" />
        </mxCell>
        <mxCell id="vhH0Gv2x4ZLZjfIvMNJY-38" value="" style="shape=waypoint;sketch=0;size=6;pointerEvents=1;points=[];fillColor=default;resizable=0;rotatable=0;perimeter=centerPerimeter;snapToPoint=1;" vertex="1" parent="1">
          <mxGeometry x="470" y="1210" width="20" height="20" as="geometry" />
        </mxCell>
        <mxCell id="vhH0Gv2x4ZLZjfIvMNJY-47" value="" style="edgeStyle=orthogonalEdgeStyle;rounded=0;orthogonalLoop=1;jettySize=auto;html=1;" edge="1" parent="1" source="vhH0Gv2x4ZLZjfIvMNJY-44" target="vhH0Gv2x4ZLZjfIvMNJY-46">
          <mxGeometry relative="1" as="geometry" />
        </mxCell>
        <mxCell id="vhH0Gv2x4ZLZjfIvMNJY-57" value="" style="edgeStyle=orthogonalEdgeStyle;rounded=0;orthogonalLoop=1;jettySize=auto;html=1;" edge="1" parent="1" source="vhH0Gv2x4ZLZjfIvMNJY-44" target="vhH0Gv2x4ZLZjfIvMNJY-56">
          <mxGeometry relative="1" as="geometry" />
        </mxCell>
        <mxCell id="vhH0Gv2x4ZLZjfIvMNJY-44" value="if opsi==2" style="rhombus;whiteSpace=wrap;html=1;" vertex="1" parent="1">
          <mxGeometry x="440" y="1520" width="80" height="80" as="geometry" />
        </mxCell>
        <mxCell id="vhH0Gv2x4ZLZjfIvMNJY-49" value="" style="edgeStyle=orthogonalEdgeStyle;rounded=0;orthogonalLoop=1;jettySize=auto;html=1;" edge="1" parent="1" source="vhH0Gv2x4ZLZjfIvMNJY-46" target="vhH0Gv2x4ZLZjfIvMNJY-48">
          <mxGeometry relative="1" as="geometry" />
        </mxCell>
        <mxCell id="vhH0Gv2x4ZLZjfIvMNJY-46" value="" style="shape=waypoint;sketch=0;size=6;pointerEvents=1;points=[];fillColor=default;resizable=0;rotatable=0;perimeter=centerPerimeter;snapToPoint=1;" vertex="1" parent="1">
          <mxGeometry x="600" y="1550" width="20" height="20" as="geometry" />
        </mxCell>
        <mxCell id="vhH0Gv2x4ZLZjfIvMNJY-48" value="" style="shape=waypoint;sketch=0;size=6;pointerEvents=1;points=[];fillColor=default;resizable=0;rotatable=0;perimeter=centerPerimeter;snapToPoint=1;" vertex="1" parent="1">
          <mxGeometry x="600" y="1610" width="20" height="20" as="geometry" />
        </mxCell>
        <mxCell id="vhH0Gv2x4ZLZjfIvMNJY-50" value="total_cicilan=total_bayar/cicilan" style="rounded=0;whiteSpace=wrap;html=1;" vertex="1" parent="1">
          <mxGeometry x="525" y="1800" width="170" height="40" as="geometry" />
        </mxCell>
        <mxCell id="vhH0Gv2x4ZLZjfIvMNJY-66" style="edgeStyle=orthogonalEdgeStyle;rounded=0;orthogonalLoop=1;jettySize=auto;html=1;exitX=0.5;exitY=1;exitDx=0;exitDy=0;" edge="1" parent="1" source="vhH0Gv2x4ZLZjfIvMNJY-51" target="vhH0Gv2x4ZLZjfIvMNJY-50">
          <mxGeometry relative="1" as="geometry" />
        </mxCell>
        <mxCell id="vhH0Gv2x4ZLZjfIvMNJY-51" value="total_bayar=ukt+(ukt*biaya admistrasi)" style="rounded=0;whiteSpace=wrap;html=1;" vertex="1" parent="1">
          <mxGeometry x="540" y="1738.5" width="140" height="31.5" as="geometry" />
        </mxCell>
        <mxCell id="vhH0Gv2x4ZLZjfIvMNJY-65" style="edgeStyle=orthogonalEdgeStyle;rounded=0;orthogonalLoop=1;jettySize=auto;html=1;exitX=0.5;exitY=1;exitDx=0;exitDy=0;" edge="1" parent="1" source="vhH0Gv2x4ZLZjfIvMNJY-52" target="vhH0Gv2x4ZLZjfIvMNJY-51">
          <mxGeometry relative="1" as="geometry" />
        </mxCell>
        <mxCell id="vhH0Gv2x4ZLZjfIvMNJY-52" value="cicilan=2" style="rounded=0;whiteSpace=wrap;html=1;" vertex="1" parent="1">
          <mxGeometry x="540" y="1680" width="140" height="30" as="geometry" />
        </mxCell>
        <mxCell id="vhH0Gv2x4ZLZjfIvMNJY-64" style="edgeStyle=orthogonalEdgeStyle;rounded=0;orthogonalLoop=1;jettySize=auto;html=1;exitX=0.5;exitY=1;exitDx=0;exitDy=0;" edge="1" parent="1" source="vhH0Gv2x4ZLZjfIvMNJY-53" target="vhH0Gv2x4ZLZjfIvMNJY-52">
          <mxGeometry relative="1" as="geometry" />
        </mxCell>
        <mxCell id="vhH0Gv2x4ZLZjfIvMNJY-53" value="biaya_admistrasi=0.05" style="rounded=0;whiteSpace=wrap;html=1;" vertex="1" parent="1">
          <mxGeometry x="540" y="1620" width="140" height="30" as="geometry" />
        </mxCell>
        <mxCell id="vhH0Gv2x4ZLZjfIvMNJY-94" value="" style="edgeStyle=orthogonalEdgeStyle;rounded=0;orthogonalLoop=1;jettySize=auto;html=1;" edge="1" parent="1" source="vhH0Gv2x4ZLZjfIvMNJY-54" target="vhH0Gv2x4ZLZjfIvMNJY-93">
          <mxGeometry relative="1" as="geometry" />
        </mxCell>
        <mxCell id="vhH0Gv2x4ZLZjfIvMNJY-54" value="print(f&quot;cicilan perpriode=Rp{cicilan:}&quot;)" style="shape=parallelogram;perimeter=parallelogramPerimeter;whiteSpace=wrap;html=1;fixedSize=1;" vertex="1" parent="1">
          <mxGeometry x="522.5" y="1980" width="170" height="50" as="geometry" />
        </mxCell>
        <mxCell id="vhH0Gv2x4ZLZjfIvMNJY-55" value="print(f&quot;total biaya ukt=Rp{total_bayar:}&quot;)" style="shape=parallelogram;perimeter=parallelogramPerimeter;whiteSpace=wrap;html=1;fixedSize=1;" vertex="1" parent="1">
          <mxGeometry x="525" y="1890" width="167.5" height="40" as="geometry" />
        </mxCell>
        <mxCell id="vhH0Gv2x4ZLZjfIvMNJY-59" value="" style="edgeStyle=orthogonalEdgeStyle;rounded=0;orthogonalLoop=1;jettySize=auto;html=1;" edge="1" parent="1" source="vhH0Gv2x4ZLZjfIvMNJY-56" target="vhH0Gv2x4ZLZjfIvMNJY-58">
          <mxGeometry relative="1" as="geometry" />
        </mxCell>
        <mxCell id="vhH0Gv2x4ZLZjfIvMNJY-56" value="" style="shape=waypoint;sketch=0;size=6;pointerEvents=1;points=[];fillColor=default;resizable=0;rotatable=0;perimeter=centerPerimeter;snapToPoint=1;" vertex="1" parent="1">
          <mxGeometry x="230" y="1550" width="20" height="20" as="geometry" />
        </mxCell>
        <mxCell id="vhH0Gv2x4ZLZjfIvMNJY-61" value="" style="edgeStyle=orthogonalEdgeStyle;rounded=0;orthogonalLoop=1;jettySize=auto;html=1;" edge="1" parent="1" source="vhH0Gv2x4ZLZjfIvMNJY-58" target="vhH0Gv2x4ZLZjfIvMNJY-60">
          <mxGeometry relative="1" as="geometry" />
        </mxCell>
        <mxCell id="vhH0Gv2x4ZLZjfIvMNJY-63" value="" style="edgeStyle=orthogonalEdgeStyle;rounded=0;orthogonalLoop=1;jettySize=auto;html=1;" edge="1" parent="1" source="vhH0Gv2x4ZLZjfIvMNJY-58" target="vhH0Gv2x4ZLZjfIvMNJY-62">
          <mxGeometry relative="1" as="geometry" />
        </mxCell>
        <mxCell id="vhH0Gv2x4ZLZjfIvMNJY-58" value="if opsi==3" style="rhombus;whiteSpace=wrap;html=1;" vertex="1" parent="1">
          <mxGeometry x="200" y="1610" width="80" height="80" as="geometry" />
        </mxCell>
        <mxCell id="vhH0Gv2x4ZLZjfIvMNJY-73" style="edgeStyle=orthogonalEdgeStyle;rounded=0;orthogonalLoop=1;jettySize=auto;html=1;" edge="1" parent="1" source="vhH0Gv2x4ZLZjfIvMNJY-60">
          <mxGeometry relative="1" as="geometry">
            <mxPoint x="370" y="1710" as="targetPoint" />
          </mxGeometry>
        </mxCell>
        <mxCell id="vhH0Gv2x4ZLZjfIvMNJY-60" value="" style="shape=waypoint;sketch=0;size=6;pointerEvents=1;points=[];fillColor=default;resizable=0;rotatable=0;perimeter=centerPerimeter;snapToPoint=1;" vertex="1" parent="1">
          <mxGeometry x="360" y="1640" width="20" height="20" as="geometry" />
        </mxCell>
        <mxCell id="vhH0Gv2x4ZLZjfIvMNJY-79" value="" style="edgeStyle=orthogonalEdgeStyle;rounded=0;orthogonalLoop=1;jettySize=auto;html=1;" edge="1" parent="1" source="vhH0Gv2x4ZLZjfIvMNJY-62" target="vhH0Gv2x4ZLZjfIvMNJY-78">
          <mxGeometry relative="1" as="geometry" />
        </mxCell>
        <mxCell id="vhH0Gv2x4ZLZjfIvMNJY-62" value="" style="shape=waypoint;sketch=0;size=6;pointerEvents=1;points=[];fillColor=default;resizable=0;rotatable=0;perimeter=centerPerimeter;snapToPoint=1;" vertex="1" parent="1">
          <mxGeometry x="120" y="1640" width="20" height="20" as="geometry" />
        </mxCell>
        <mxCell id="vhH0Gv2x4ZLZjfIvMNJY-67" value="" style="endArrow=classic;html=1;rounded=0;" edge="1" parent="1">
          <mxGeometry width="50" height="50" relative="1" as="geometry">
            <mxPoint x="609.5" y="1840" as="sourcePoint" />
            <mxPoint x="609.5" y="1890" as="targetPoint" />
          </mxGeometry>
        </mxCell>
        <mxCell id="vhH0Gv2x4ZLZjfIvMNJY-69" value="" style="endArrow=classic;html=1;rounded=0;" edge="1" parent="1">
          <mxGeometry width="50" height="50" relative="1" as="geometry">
            <mxPoint x="607" y="1930" as="sourcePoint" />
            <mxPoint x="607" y="1980" as="targetPoint" />
          </mxGeometry>
        </mxCell>
        <mxCell id="vhH0Gv2x4ZLZjfIvMNJY-71" value="cicilan=4" style="rounded=0;whiteSpace=wrap;html=1;" vertex="1" parent="1">
          <mxGeometry x="306" y="1770" width="140" height="30" as="geometry" />
        </mxCell>
        <mxCell id="vhH0Gv2x4ZLZjfIvMNJY-77" value="" style="edgeStyle=orthogonalEdgeStyle;rounded=0;orthogonalLoop=1;jettySize=auto;html=1;" edge="1" parent="1" source="vhH0Gv2x4ZLZjfIvMNJY-72" target="vhH0Gv2x4ZLZjfIvMNJY-76">
          <mxGeometry relative="1" as="geometry" />
        </mxCell>
        <mxCell id="vhH0Gv2x4ZLZjfIvMNJY-72" value="" style="rounded=0;whiteSpace=wrap;html=1;" vertex="1" parent="1">
          <mxGeometry x="306" y="1830" width="140" height="30" as="geometry" />
        </mxCell>
        <mxCell id="vhH0Gv2x4ZLZjfIvMNJY-74" value="" style="endArrow=classic;html=1;rounded=0;" edge="1" parent="1">
          <mxGeometry width="50" height="50" relative="1" as="geometry">
            <mxPoint x="369.5" y="1740" as="sourcePoint" />
            <mxPoint x="370" y="1770" as="targetPoint" />
          </mxGeometry>
        </mxCell>
        <mxCell id="vhH0Gv2x4ZLZjfIvMNJY-75" value="" style="endArrow=classic;html=1;rounded=0;" edge="1" parent="1">
          <mxGeometry width="50" height="50" relative="1" as="geometry">
            <mxPoint x="369.5" y="1800" as="sourcePoint" />
            <mxPoint x="370" y="1830" as="targetPoint" />
          </mxGeometry>
        </mxCell>
        <mxCell id="vhH0Gv2x4ZLZjfIvMNJY-100" value="" style="edgeStyle=orthogonalEdgeStyle;rounded=0;orthogonalLoop=1;jettySize=auto;html=1;" edge="1" parent="1" source="vhH0Gv2x4ZLZjfIvMNJY-76" target="vhH0Gv2x4ZLZjfIvMNJY-99">
          <mxGeometry relative="1" as="geometry" />
        </mxCell>
        <mxCell id="vhH0Gv2x4ZLZjfIvMNJY-76" value="" style="rounded=0;whiteSpace=wrap;html=1;" vertex="1" parent="1">
          <mxGeometry x="306" y="1890" width="140" height="30" as="geometry" />
        </mxCell>
        <mxCell id="vhH0Gv2x4ZLZjfIvMNJY-78" value="" style="shape=waypoint;sketch=0;size=6;pointerEvents=1;points=[];fillColor=default;resizable=0;rotatable=0;perimeter=centerPerimeter;snapToPoint=1;" vertex="1" parent="1">
          <mxGeometry x="120" y="1700" width="20" height="20" as="geometry" />
        </mxCell>
        <mxCell id="vhH0Gv2x4ZLZjfIvMNJY-85" style="edgeStyle=orthogonalEdgeStyle;rounded=0;orthogonalLoop=1;jettySize=auto;html=1;exitX=0.5;exitY=1;exitDx=0;exitDy=0;" edge="1" parent="1" source="vhH0Gv2x4ZLZjfIvMNJY-80" target="vhH0Gv2x4ZLZjfIvMNJY-84">
          <mxGeometry relative="1" as="geometry" />
        </mxCell>
        <mxCell id="vhH0Gv2x4ZLZjfIvMNJY-80" value="if opsi==3" style="rhombus;whiteSpace=wrap;html=1;" vertex="1" parent="1">
          <mxGeometry x="90" y="1710" width="80" height="80" as="geometry" />
        </mxCell>
        <mxCell id="vhH0Gv2x4ZLZjfIvMNJY-96" value="" style="edgeStyle=orthogonalEdgeStyle;rounded=0;orthogonalLoop=1;jettySize=auto;html=1;" edge="1" parent="1" source="vhH0Gv2x4ZLZjfIvMNJY-81" target="vhH0Gv2x4ZLZjfIvMNJY-95">
          <mxGeometry relative="1" as="geometry" />
        </mxCell>
        <mxCell id="vhH0Gv2x4ZLZjfIvMNJY-81" value="" style="rounded=0;whiteSpace=wrap;html=1;" vertex="1" parent="1">
          <mxGeometry x="60" y="1960" width="140" height="30" as="geometry" />
        </mxCell>
        <mxCell id="vhH0Gv2x4ZLZjfIvMNJY-88" style="edgeStyle=orthogonalEdgeStyle;rounded=0;orthogonalLoop=1;jettySize=auto;html=1;exitX=0.5;exitY=1;exitDx=0;exitDy=0;entryX=0.5;entryY=0;entryDx=0;entryDy=0;" edge="1" parent="1" source="vhH0Gv2x4ZLZjfIvMNJY-82" target="vhH0Gv2x4ZLZjfIvMNJY-81">
          <mxGeometry relative="1" as="geometry" />
        </mxCell>
        <mxCell id="vhH0Gv2x4ZLZjfIvMNJY-82" value="" style="rounded=0;whiteSpace=wrap;html=1;" vertex="1" parent="1">
          <mxGeometry x="60" y="1910" width="140" height="30" as="geometry" />
        </mxCell>
        <mxCell id="vhH0Gv2x4ZLZjfIvMNJY-87" style="edgeStyle=orthogonalEdgeStyle;rounded=0;orthogonalLoop=1;jettySize=auto;html=1;exitX=0.5;exitY=1;exitDx=0;exitDy=0;entryX=0.5;entryY=0;entryDx=0;entryDy=0;" edge="1" parent="1" source="vhH0Gv2x4ZLZjfIvMNJY-83" target="vhH0Gv2x4ZLZjfIvMNJY-82">
          <mxGeometry relative="1" as="geometry" />
        </mxCell>
        <mxCell id="vhH0Gv2x4ZLZjfIvMNJY-83" value="" style="rounded=0;whiteSpace=wrap;html=1;" vertex="1" parent="1">
          <mxGeometry x="60" y="1860" width="140" height="30" as="geometry" />
        </mxCell>
        <mxCell id="vhH0Gv2x4ZLZjfIvMNJY-86" style="edgeStyle=orthogonalEdgeStyle;rounded=0;orthogonalLoop=1;jettySize=auto;html=1;exitX=0.5;exitY=1;exitDx=0;exitDy=0;" edge="1" parent="1" source="vhH0Gv2x4ZLZjfIvMNJY-84" target="vhH0Gv2x4ZLZjfIvMNJY-83">
          <mxGeometry relative="1" as="geometry" />
        </mxCell>
        <mxCell id="vhH0Gv2x4ZLZjfIvMNJY-84" value="" style="rounded=0;whiteSpace=wrap;html=1;" vertex="1" parent="1">
          <mxGeometry x="60" y="1810" width="140" height="30" as="geometry" />
        </mxCell>
        <mxCell id="vhH0Gv2x4ZLZjfIvMNJY-92" value="" style="edgeStyle=orthogonalEdgeStyle;rounded=0;orthogonalLoop=1;jettySize=auto;html=1;" edge="1" parent="1" source="vhH0Gv2x4ZLZjfIvMNJY-89" target="vhH0Gv2x4ZLZjfIvMNJY-91">
          <mxGeometry relative="1" as="geometry" />
        </mxCell>
        <mxCell id="vhH0Gv2x4ZLZjfIvMNJY-89" value="" style="shape=waypoint;sketch=0;size=6;pointerEvents=1;points=[];fillColor=default;resizable=0;rotatable=0;perimeter=centerPerimeter;snapToPoint=1;" vertex="1" parent="1">
          <mxGeometry x="20" y="1210" width="20" height="20" as="geometry" />
        </mxCell>
        <mxCell id="vhH0Gv2x4ZLZjfIvMNJY-105" value="" style="edgeStyle=orthogonalEdgeStyle;rounded=0;orthogonalLoop=1;jettySize=auto;html=1;" edge="1" parent="1" source="vhH0Gv2x4ZLZjfIvMNJY-102" target="vhH0Gv2x4ZLZjfIvMNJY-104">
          <mxGeometry relative="1" as="geometry" />
        </mxCell>
        <mxCell id="vhH0Gv2x4ZLZjfIvMNJY-91" value="" style="shape=waypoint;sketch=0;size=6;pointerEvents=1;points=[];fillColor=default;resizable=0;rotatable=0;perimeter=centerPerimeter;snapToPoint=1;" vertex="1" parent="1">
          <mxGeometry x="20" y="2120" width="20" height="20" as="geometry" />
        </mxCell>
        <mxCell id="vhH0Gv2x4ZLZjfIvMNJY-107" value="" style="edgeStyle=orthogonalEdgeStyle;rounded=0;orthogonalLoop=1;jettySize=auto;html=1;" edge="1" parent="1" source="vhH0Gv2x4ZLZjfIvMNJY-93" target="vhH0Gv2x4ZLZjfIvMNJY-104">
          <mxGeometry relative="1" as="geometry" />
        </mxCell>
        <mxCell id="vhH0Gv2x4ZLZjfIvMNJY-93" value="" style="shape=waypoint;sketch=0;size=6;pointerEvents=1;points=[];fillColor=default;resizable=0;rotatable=0;perimeter=centerPerimeter;snapToPoint=1;" vertex="1" parent="1">
          <mxGeometry x="598.75" y="2120" width="20" height="20" as="geometry" />
        </mxCell>
        <mxCell id="vhH0Gv2x4ZLZjfIvMNJY-98" value="" style="edgeStyle=orthogonalEdgeStyle;rounded=0;orthogonalLoop=1;jettySize=auto;html=1;" edge="1" parent="1" source="vhH0Gv2x4ZLZjfIvMNJY-95" target="vhH0Gv2x4ZLZjfIvMNJY-97">
          <mxGeometry relative="1" as="geometry" />
        </mxCell>
        <mxCell id="vhH0Gv2x4ZLZjfIvMNJY-95" value="" style="shape=waypoint;sketch=0;size=6;pointerEvents=1;points=[];fillColor=default;resizable=0;rotatable=0;perimeter=centerPerimeter;snapToPoint=1;rounded=0;" vertex="1" parent="1">
          <mxGeometry x="120" y="2030" width="20" height="20" as="geometry" />
        </mxCell>
        <mxCell id="vhH0Gv2x4ZLZjfIvMNJY-103" value="" style="edgeStyle=orthogonalEdgeStyle;rounded=0;orthogonalLoop=1;jettySize=auto;html=1;" edge="1" parent="1" source="vhH0Gv2x4ZLZjfIvMNJY-97" target="vhH0Gv2x4ZLZjfIvMNJY-102">
          <mxGeometry relative="1" as="geometry" />
        </mxCell>
        <mxCell id="vhH0Gv2x4ZLZjfIvMNJY-97" value="" style="shape=waypoint;sketch=0;size=6;pointerEvents=1;points=[];fillColor=default;resizable=0;rotatable=0;perimeter=centerPerimeter;snapToPoint=1;rounded=0;" vertex="1" parent="1">
          <mxGeometry x="240" y="2030" width="20" height="20" as="geometry" />
        </mxCell>
        <mxCell id="vhH0Gv2x4ZLZjfIvMNJY-101" value="" style="edgeStyle=orthogonalEdgeStyle;rounded=0;orthogonalLoop=1;jettySize=auto;html=1;" edge="1" parent="1" source="vhH0Gv2x4ZLZjfIvMNJY-99" target="vhH0Gv2x4ZLZjfIvMNJY-97">
          <mxGeometry relative="1" as="geometry" />
        </mxCell>
        <mxCell id="vhH0Gv2x4ZLZjfIvMNJY-99" value="" style="shape=waypoint;sketch=0;size=6;pointerEvents=1;points=[];fillColor=default;resizable=0;rotatable=0;perimeter=centerPerimeter;snapToPoint=1;rounded=0;" vertex="1" parent="1">
          <mxGeometry x="366" y="2030" width="20" height="20" as="geometry" />
        </mxCell>
        <mxCell id="vhH0Gv2x4ZLZjfIvMNJY-111" value="" style="edgeStyle=orthogonalEdgeStyle;rounded=0;orthogonalLoop=1;jettySize=auto;html=1;" edge="1" parent="1" source="vhH0Gv2x4ZLZjfIvMNJY-104" target="vhH0Gv2x4ZLZjfIvMNJY-110">
          <mxGeometry relative="1" as="geometry" />
        </mxCell>
        <mxCell id="vhH0Gv2x4ZLZjfIvMNJY-104" value="" style="shape=waypoint;sketch=0;size=6;pointerEvents=1;points=[];fillColor=default;resizable=0;rotatable=0;perimeter=centerPerimeter;snapToPoint=1;" vertex="1" parent="1">
          <mxGeometry x="485" y="2120" width="20" height="20" as="geometry" />
        </mxCell>
        <mxCell id="vhH0Gv2x4ZLZjfIvMNJY-106" value="" style="edgeStyle=orthogonalEdgeStyle;rounded=0;orthogonalLoop=1;jettySize=auto;html=1;" edge="1" parent="1" source="vhH0Gv2x4ZLZjfIvMNJY-91" target="vhH0Gv2x4ZLZjfIvMNJY-102">
          <mxGeometry relative="1" as="geometry">
            <mxPoint x="30" y="2130" as="sourcePoint" />
            <mxPoint x="495" y="2130" as="targetPoint" />
          </mxGeometry>
        </mxCell>
        <mxCell id="vhH0Gv2x4ZLZjfIvMNJY-102" value="" style="shape=waypoint;sketch=0;size=6;pointerEvents=1;points=[];fillColor=default;resizable=0;rotatable=0;perimeter=centerPerimeter;snapToPoint=1;rounded=0;" vertex="1" parent="1">
          <mxGeometry x="240" y="2120" width="20" height="20" as="geometry" />
        </mxCell>
        <mxCell id="vhH0Gv2x4ZLZjfIvMNJY-110" value="end" style="ellipse;whiteSpace=wrap;html=1;" vertex="1" parent="1">
          <mxGeometry x="437.5" y="2170" width="120" height="80" as="geometry" />
        </mxCell>
      </root>
    </mxGraphModel>
  </diagram>
</mxfile>
